<svg width="154" height="90" viewBox="0 0 154 90" fill="none" xmlns="http://www.w3.org/2000/svg">
<path d="M153.401 89.2966H0.0378055C0.0236285 89.2068 0.0141771 89.117 0 89.0272C6.48838 88.0632 12.9815 87.0991 19.4699 86.1351C21.7146 85.7995 23.9782 85.5396 26.1992 85.1049C28.8267 84.585 30.5941 82.7467 32.182 80.762C34.2329 78.1959 35.4096 75.1667 36.591 71.6083C38.987 75.1053 41.5483 78.073 43.2259 81.4803C45.2391 85.5633 48.4951 85.3128 52.0015 85.1427C53.2775 85.0812 53.3909 84.2826 53.372 83.3138C53.3342 81.14 52.6206 79.1883 51.5289 77.3358C50.4893 75.5779 49.3457 73.8766 47.8287 72.5204C40.244 65.7248 36.5154 57.0106 35.2348 47.1245C34.9607 45.0263 34.1809 44.4214 32.1253 44.5254C21.5492 45.0641 13.4635 41.052 8.73308 31.2603C7.38153 28.4674 6.55926 25.5375 6.56871 22.3619C6.57344 20.7835 7.13107 20.0415 8.55823 19.5075C10.8124 18.6664 13.1847 18.6569 15.5003 18.4206C17.6646 18.1985 18.8839 17.2392 19.7061 15.3395C21.0671 12.1969 22.7259 9.23388 25.169 6.75762C30.8068 1.04425 39.4028 -2.47639 48.4998 2.09808C50.7681 3.23698 53.372 3.29368 55.645 4.4562C62.7572 8.09026 67.2702 13.9359 70.0017 21.2749C70.7625 23.3164 71.306 25.4572 71.7549 27.5932C72.5441 31.3596 71.3201 34.2753 68.0169 36.3074C66.4905 37.2478 66.8071 37.6684 68.135 38.2922C73.5365 40.8393 79.2829 41.3828 85.053 40.5699C100.506 38.3914 112.363 43.9157 121.11 56.6609C126.795 64.9451 131.162 73.9192 134.933 83.1815C136.015 85.8421 137.584 86.825 140.263 87.1227C144.682 87.6189 149.067 88.4318 153.462 89.1075C153.443 89.169 153.42 89.2304 153.401 89.2966ZM93.2048 76.5655C103.819 74.7272 112.731 77.213 120.515 83.8904C120.945 84.259 121.323 84.6985 121.776 85.034C122.944 85.8988 124.385 85.4168 125.16 84.8261C125.968 84.207 124.706 83.3233 124.205 82.7089C121.932 79.935 119.295 77.5249 116.375 75.4408C108.166 69.581 99.2254 66.8968 89.3014 70.0299C79.7461 73.0496 72.2369 79.7554 63.6078 84.6087C64.3072 85.4735 65.0019 85.1899 65.5926 85.1899C76.3058 85.1899 87.0189 85.1758 97.732 85.1238C98.6394 85.1238 99.8775 85.6294 100.397 84.5756C100.922 83.5123 100.024 82.5861 99.4522 81.7213C98.0014 79.5191 95.7378 78.2384 93.2001 76.575L93.2048 76.5655ZM29.8191 17.0029C29.8569 15.0134 28.5857 13.4161 26.9648 13.4114C25.3108 13.4067 23.7655 15.141 23.7135 17.0549C23.6663 18.9263 25.032 20.6039 26.6435 20.6464C28.3069 20.689 29.7813 18.9972 29.8191 17.0029Z" fill="#CB7E36"/>
<path d="M89.4243 26.1755C91.6595 17.9575 99.8019 14.5125 106.46 15.1836C119.787 16.5257 126.994 28.3777 122.844 41.7372C121.597 45.7509 119.461 46.3842 116.436 43.637C113.086 40.5842 109.244 38.33 104.958 36.9312C103.115 36.331 103.129 35.797 104.216 34.3935C105.841 32.2858 106.607 29.8379 106.413 27.1065C106.059 22.1162 101.782 19.0775 96.9995 20.4811C94.4571 21.2277 93.4269 21.9886 89.4243 26.1755Z" fill="#CB7E36"/>
</svg>
